<svg width="13" height="18" viewBox="0 0 13 18" fill="none" xmlns="http://www.w3.org/2000/svg">
<path d="M10.25 0.25H2.75C2.25272 0.25 1.77581 0.447544 1.42417 0.799175C1.07254 1.15081 0.875 1.62772 0.875 2.125V15.875C0.875 16.3723 1.07254 16.8492 1.42417 17.2008C1.77581 17.5525 2.25272 17.75 2.75 17.75H10.25C10.7473 17.75 11.2242 17.5525 11.5758 17.2008C11.9275 16.8492 12.125 16.3723 12.125 15.875V2.125C12.125 1.62772 11.9275 1.15081 11.5758 0.799175C11.2242 0.447544 10.7473 0.25 10.25 0.25ZM2.125 4H10.875V14H2.125V4ZM2.75 1.5H10.25C10.4158 1.5 10.5747 1.56585 10.6919 1.68306C10.8092 1.80027 10.875 1.95924 10.875 2.125V2.75H2.125V2.125C2.125 1.95924 2.19085 1.80027 2.30806 1.68306C2.42527 1.56585 2.58424 1.5 2.75 1.5ZM10.25 16.5H2.75C2.58424 16.5 2.42527 16.4342 2.30806 16.3169C2.19085 16.1997 2.125 16.0408 2.125 15.875V15.25H10.875V15.875C10.875 16.0408 10.8092 16.1997 10.6919 16.3169C10.5747 16.4342 10.4158 16.5 10.25 16.5Z" fill="#E8E8E8"/>
</svg>
