<svg width="19" height="14" viewBox="0 0 19 14" fill="none" xmlns="http://www.w3.org/2000/svg">
<path d="M17 2.625H15.75V2C15.75 1.50272 15.5525 1.02581 15.2008 0.674175C14.8492 0.322544 14.3723 0.125 13.875 0.125H2.625C2.12772 0.125 1.65081 0.322544 1.29917 0.674175C0.947544 1.02581 0.75 1.50272 0.75 2V9.5C0.75 9.99728 0.947544 10.4742 1.29917 10.8258C1.65081 11.1775 2.12772 11.375 2.625 11.375H11.375V12C11.375 12.4973 11.5725 12.9742 11.9242 13.3258C12.2758 13.6775 12.7527 13.875 13.25 13.875H17C17.4973 13.875 17.9742 13.6775 18.3258 13.3258C18.6775 12.9742 18.875 12.4973 18.875 12V4.5C18.875 4.00272 18.6775 3.52581 18.3258 3.17417C17.9742 2.82254 17.4973 2.625 17 2.625ZM2.625 10.125C2.45924 10.125 2.30027 10.0592 2.18306 9.94194C2.06585 9.82473 2 9.66576 2 9.5V2C2 1.83424 2.06585 1.67527 2.18306 1.55806C2.30027 1.44085 2.45924 1.375 2.625 1.375H13.875C14.0408 1.375 14.1997 1.44085 14.3169 1.55806C14.4342 1.67527 14.5 1.83424 14.5 2V2.625H13.25C12.7527 2.625 12.2758 2.82254 11.9242 3.17417C11.5725 3.52581 11.375 4.00272 11.375 4.5V10.125H2.625ZM17.625 12C17.625 12.1658 17.5592 12.3247 17.4419 12.4419C17.3247 12.5592 17.1658 12.625 17 12.625H13.25C13.0842 12.625 12.9253 12.5592 12.8081 12.4419C12.6908 12.3247 12.625 12.1658 12.625 12V4.5C12.625 4.33424 12.6908 4.17527 12.8081 4.05806C12.9253 3.94085 13.0842 3.875 13.25 3.875H17C17.1658 3.875 17.3247 3.94085 17.4419 4.05806C17.5592 4.17527 17.625 4.33424 17.625 4.5V12ZM10.125 13.25C10.125 13.4158 10.0592 13.5747 9.94194 13.6919C9.82473 13.8092 9.66576 13.875 9.5 13.875H6.375C6.20924 13.875 6.05027 13.8092 5.93306 13.6919C5.81585 13.5747 5.75 13.4158 5.75 13.25C5.75 13.0842 5.81585 12.9253 5.93306 12.8081C6.05027 12.6908 6.20924 12.625 6.375 12.625H9.5C9.66576 12.625 9.82473 12.6908 9.94194 12.8081C10.0592 12.9253 10.125 13.0842 10.125 13.25ZM16.375 5.75C16.375 5.91576 16.3092 6.07473 16.1919 6.19194C16.0747 6.30915 15.9158 6.375 15.75 6.375H14.5C14.3342 6.375 14.1753 6.30915 14.0581 6.19194C13.9408 6.07473 13.875 5.91576 13.875 5.75C13.875 5.58424 13.9408 5.42527 14.0581 5.30806C14.1753 5.19085 14.3342 5.125 14.5 5.125H15.75C15.9158 5.125 16.0747 5.19085 16.1919 5.30806C16.3092 5.42527 16.375 5.58424 16.375 5.75Z" fill="#E8E8E8"/>
</svg>
