<svg width="15" height="18" viewBox="0 0 15 18" fill="none" xmlns="http://www.w3.org/2000/svg">
<path d="M14.2127 15.4547L1.71266 1.70469C1.65777 1.64282 1.59115 1.59246 1.51666 1.55652C1.44216 1.52059 1.36128 1.4998 1.27869 1.49536C1.19611 1.49091 1.11346 1.50291 1.03554 1.53064C0.957621 1.55837 0.885982 1.6013 0.824775 1.65692C0.763567 1.71255 0.714009 1.77976 0.678971 1.85468C0.643934 1.9296 0.624115 2.01073 0.620662 2.09336C0.617209 2.176 0.630193 2.2585 0.658858 2.33608C0.687524 2.41366 0.731303 2.48478 0.787657 2.54531L1.87516 3.74141V15.875C1.87516 16.3723 2.0727 16.8492 2.42433 17.2008C2.77596 17.5525 3.25288 17.75 3.75016 17.75H11.2502C11.7083 17.7499 12.1505 17.5821 12.4933 17.2782C12.8362 16.9744 13.0559 16.5556 13.1111 16.1008L13.2877 16.2953C13.3425 16.3572 13.4092 16.4075 13.4837 16.4435C13.5582 16.4794 13.639 16.5002 13.7216 16.5046C13.8042 16.5091 13.8869 16.4971 13.9648 16.4694C14.0427 16.4416 14.1143 16.3987 14.1755 16.3431C14.2367 16.2875 14.2863 16.2202 14.3213 16.1453C14.3564 16.0704 14.3762 15.9893 14.3797 15.9066C14.3831 15.824 14.3701 15.7415 14.3415 15.6639C14.3128 15.5863 14.269 15.5152 14.2127 15.4547ZM11.8752 15.875C11.8752 16.0408 11.8093 16.1997 11.6921 16.3169C11.5749 16.4342 11.4159 16.5 11.2502 16.5H3.75016C3.5844 16.5 3.42543 16.4342 3.30822 16.3169C3.19101 16.1997 3.12516 16.0408 3.12516 15.875V5.11641L11.8752 14.7414V15.875ZM2.86734 0.875C2.86734 0.70924 2.93319 0.550268 3.0504 0.433058C3.16761 0.315848 3.32658 0.25 3.49234 0.25H11.2502C11.7474 0.25 12.2244 0.447544 12.576 0.799175C12.9276 1.15081 13.1252 1.62772 13.1252 2.125V10.7836C13.1252 10.9494 13.0593 11.1083 12.9421 11.2255C12.8249 11.3427 12.6659 11.4086 12.5002 11.4086C12.3344 11.4086 12.1754 11.3427 12.0582 11.2255C11.941 11.1083 11.8752 10.9494 11.8752 10.7836V2.125C11.8752 1.95924 11.8093 1.80027 11.6921 1.68306C11.5749 1.56585 11.4159 1.5 11.2502 1.5H3.49234C3.32658 1.5 3.16761 1.43415 3.0504 1.31694C2.93319 1.19973 2.86734 1.04076 2.86734 0.875Z" fill="#E8E8E8"/>
</svg>
