<svg width="17" height="22" viewBox="0 0 17 22" fill="none" xmlns="http://www.w3.org/2000/svg">
<path d="M13.0001 20.75C13.0001 20.9489 12.9211 21.1396 12.7805 21.2803C12.6398 21.4209 12.449 21.5 12.2501 21.5H4.75012C4.55121 21.5 4.36045 21.4209 4.21979 21.2803C4.07914 21.1396 4.00012 20.9489 4.00012 20.75C4.00012 20.551 4.07914 20.3603 4.21979 20.2196C4.36045 20.079 4.55121 20 4.75012 20H12.2501C12.449 20 12.6398 20.079 12.7805 20.2196C12.9211 20.3603 13.0001 20.551 13.0001 20.75ZM16.7501 8.74995C16.7534 10.0002 16.4709 11.2347 15.9243 12.3592C15.3778 13.4837 14.5815 14.4685 13.5964 15.2384C13.4122 15.3796 13.2627 15.561 13.1593 15.7688C13.056 15.9767 13.0015 16.2054 13.0001 16.4375V17C13.0001 17.3978 12.8421 17.7793 12.5608 18.0606C12.2795 18.3419 11.8979 18.5 11.5001 18.5H5.50012C5.1023 18.5 4.72077 18.3419 4.43946 18.0606C4.15816 17.7793 4.00012 17.3978 4.00012 17V16.4375C3.99997 16.2081 3.94724 15.9819 3.84599 15.7762C3.74474 15.5704 3.59766 15.3906 3.41606 15.2506C2.4335 14.4853 1.63787 13.5066 1.08937 12.3885C0.540874 11.2704 0.253886 10.0422 0.250123 8.79683C0.225748 4.32777 3.837 0.607766 8.30137 0.499953C9.40139 0.473445 10.4956 0.667253 11.5196 1.06997C12.5436 1.47269 13.4767 2.07617 14.2639 2.84491C15.0512 3.61365 15.6767 4.53211 16.1037 5.54622C16.5306 6.56034 16.7504 7.64962 16.7501 8.74995ZM15.2501 8.74995C15.2504 7.84964 15.0705 6.95836 14.7212 6.1286C14.3718 5.29883 13.8599 4.54735 13.2158 3.91837C12.5716 3.2894 11.8081 2.79564 10.9702 2.46618C10.1324 2.13671 9.23705 1.9782 8.337 1.99995C4.68075 2.0862 1.73044 5.13027 1.75012 8.78652C1.75348 9.8052 1.98852 10.8098 2.43745 11.7242C2.88639 12.6387 3.53745 13.439 4.34137 14.0646C4.70273 14.3456 4.99501 14.7054 5.19586 15.1167C5.3967 15.528 5.50078 15.9798 5.50012 16.4375V17H7.75012V12.8103L4.9695 10.0306C4.82877 9.88985 4.74971 9.69898 4.74971 9.49995C4.74971 9.30093 4.82877 9.11006 4.9695 8.96933C5.11023 8.8286 5.3011 8.74954 5.50012 8.74954C5.69915 8.74954 5.89002 8.8286 6.03075 8.96933L8.50012 11.4396L10.9695 8.96933C11.0392 8.89965 11.1219 8.84437 11.213 8.80666C11.304 8.76895 11.4016 8.74954 11.5001 8.74954C11.5987 8.74954 11.6963 8.76895 11.7873 8.80666C11.8783 8.84437 11.9611 8.89965 12.0307 8.96933C12.1004 9.03901 12.1557 9.12174 12.1934 9.21278C12.2311 9.30383 12.2505 9.40141 12.2505 9.49995C12.2505 9.5985 12.2311 9.69608 12.1934 9.78713C12.1557 9.87817 12.1004 9.9609 12.0307 10.0306L9.25012 12.8103V17H11.5001V16.4375C11.501 15.9784 11.6067 15.5256 11.8093 15.1137C12.012 14.7018 12.3061 14.3417 12.6692 14.0609C13.4755 13.4307 14.1272 12.6247 14.5745 11.7042C15.0218 10.7838 15.2529 9.77332 15.2501 8.74995Z" fill="#979797"/>
</svg>
