<svg width="18" height="22" viewBox="0 0 18 22" fill="none" xmlns="http://www.w3.org/2000/svg">
<path d="M13.4999 20.75C13.4999 20.9489 13.4209 21.1396 13.2802 21.2803C13.1396 21.4209 12.9488 21.5 12.7499 21.5H5.24988C5.05097 21.5 4.8602 21.4209 4.71955 21.2803C4.5789 21.1396 4.49988 20.9489 4.49988 20.75C4.49988 20.551 4.5789 20.3603 4.71955 20.2196C4.8602 20.079 5.05097 20 5.24988 20H12.7499C12.9488 20 13.1396 20.079 13.2802 20.2196C13.4209 20.3603 13.4999 20.551 13.4999 20.75ZM17.2499 8.74995C17.2531 10.0002 16.9707 11.2347 16.4241 12.3592C15.8775 13.4837 15.0813 14.4685 14.0961 15.2384C13.9119 15.3796 13.7624 15.561 13.6591 15.7688C13.5558 15.9767 13.5013 16.2054 13.4999 16.4375V17C13.4999 17.3978 13.3418 17.7793 13.0605 18.0606C12.7792 18.3419 12.3977 18.5 11.9999 18.5H5.99988C5.60205 18.5 5.22052 18.3419 4.93922 18.0606C4.65791 17.7793 4.49988 17.3978 4.49988 17V16.4375C4.49972 16.2081 4.447 15.9819 4.34575 15.7762C4.24449 15.5704 4.09742 15.3906 3.91582 15.2506C2.93313 14.4852 2.13742 13.5064 1.58892 12.3881C1.04042 11.2698 0.7535 10.0414 0.749879 8.79589C0.725504 4.32777 4.33675 0.606828 8.80113 0.499953C9.90114 0.473445 10.9953 0.667253 12.0193 1.06997C13.0433 1.47269 13.9764 2.07617 14.7637 2.84491C15.5509 3.61365 16.1765 4.53211 16.6034 5.54622C17.0304 6.56034 17.2502 7.64962 17.2499 8.74995ZM12.5305 8.96933C12.4608 8.8996 12.3781 8.84428 12.2871 8.80653C12.196 8.76879 12.0984 8.74936 11.9999 8.74936C11.9013 8.74936 11.8037 8.76879 11.7127 8.80653C11.6216 8.84428 11.5389 8.8996 11.4693 8.96933L8.99988 11.4396L6.5305 8.96933C6.38977 8.8286 6.1989 8.74954 5.99988 8.74954C5.80086 8.74954 5.60998 8.8286 5.46925 8.96933C5.32852 9.11006 5.24946 9.30093 5.24946 9.49995C5.24946 9.69898 5.32852 9.88985 5.46925 10.0306L8.24988 12.8103V16.25C8.24988 16.4489 8.3289 16.6396 8.46955 16.7803C8.6102 16.9209 8.80097 17 8.99988 17C9.19879 17 9.38956 16.9209 9.53021 16.7803C9.67086 16.6396 9.74988 16.4489 9.74988 16.25V12.8103L12.5305 10.0306C12.6002 9.96092 12.6556 9.87821 12.6933 9.78716C12.731 9.69611 12.7505 9.59852 12.7505 9.49995C12.7505 9.40139 12.731 9.3038 12.6933 9.21275C12.6556 9.1217 12.6002 9.03898 12.5305 8.96933Z" fill="white"/>
</svg>
