<svg width="20" height="13" viewBox="0 0 20 13" fill="none" xmlns="http://www.w3.org/2000/svg">
<path d="M15.625 0.875H2.5C2.00272 0.875 1.52581 1.07254 1.17417 1.42417C0.822544 1.77581 0.625 2.25272 0.625 2.75V10.25C0.625 10.7473 0.822544 11.2242 1.17417 11.5758C1.52581 11.9275 2.00272 12.125 2.5 12.125H15.625C16.1223 12.125 16.5992 11.9275 16.9508 11.5758C17.3025 11.2242 17.5 10.7473 17.5 10.25V2.75C17.5 2.25272 17.3025 1.77581 16.9508 1.42417C16.5992 1.07254 16.1223 0.875 15.625 0.875ZM16.25 10.25C16.25 10.4158 16.1842 10.5747 16.0669 10.6919C15.9497 10.8092 15.7908 10.875 15.625 10.875H2.5C2.33424 10.875 2.17527 10.8092 2.05806 10.6919C1.94085 10.5747 1.875 10.4158 1.875 10.25V2.75C1.875 2.58424 1.94085 2.42527 2.05806 2.30806C2.17527 2.19085 2.33424 2.125 2.5 2.125H15.625C15.7908 2.125 15.9497 2.19085 16.0669 2.30806C16.1842 2.42527 16.25 2.58424 16.25 2.75V10.25ZM14.375 4V9C14.375 9.16576 14.3092 9.32473 14.1919 9.44194C14.0747 9.55915 13.9158 9.625 13.75 9.625C13.5842 9.625 13.4253 9.55915 13.3081 9.44194C13.1908 9.32473 13.125 9.16576 13.125 9V4C13.125 3.83424 13.1908 3.67527 13.3081 3.55806C13.4253 3.44085 13.5842 3.375 13.75 3.375C13.9158 3.375 14.0747 3.44085 14.1919 3.55806C14.3092 3.67527 14.375 3.83424 14.375 4ZM11.25 4V9C11.25 9.16576 11.1842 9.32473 11.0669 9.44194C10.9497 9.55915 10.7908 9.625 10.625 9.625C10.4592 9.625 10.3003 9.55915 10.1831 9.44194C10.0658 9.32473 10 9.16576 10 9V4C10 3.83424 10.0658 3.67527 10.1831 3.55806C10.3003 3.44085 10.4592 3.375 10.625 3.375C10.7908 3.375 10.9497 3.44085 11.0669 3.55806C11.1842 3.67527 11.25 3.83424 11.25 4ZM8.125 4V9C8.125 9.16576 8.05915 9.32473 7.94194 9.44194C7.82473 9.55915 7.66576 9.625 7.5 9.625C7.33424 9.625 7.17527 9.55915 7.05806 9.44194C6.94085 9.32473 6.875 9.16576 6.875 9V4C6.875 3.83424 6.94085 3.67527 7.05806 3.55806C7.17527 3.44085 7.33424 3.375 7.5 3.375C7.66576 3.375 7.82473 3.44085 7.94194 3.55806C8.05915 3.67527 8.125 3.83424 8.125 4ZM5 4V9C5 9.16576 4.93415 9.32473 4.81694 9.44194C4.69973 9.55915 4.54076 9.625 4.375 9.625C4.20924 9.625 4.05027 9.55915 3.93306 9.44194C3.81585 9.32473 3.75 9.16576 3.75 9V4C3.75 3.83424 3.81585 3.67527 3.93306 3.55806C4.05027 3.44085 4.20924 3.375 4.375 3.375C4.54076 3.375 4.69973 3.44085 4.81694 3.55806C4.93415 3.67527 5 3.83424 5 4ZM20 4V9C20 9.16576 19.9342 9.32473 19.8169 9.44194C19.6997 9.55915 19.5408 9.625 19.375 9.625C19.2092 9.625 19.0503 9.55915 18.9331 9.44194C18.8158 9.32473 18.75 9.16576 18.75 9V4C18.75 3.83424 18.8158 3.67527 18.9331 3.55806C19.0503 3.44085 19.2092 3.375 19.375 3.375C19.5408 3.375 19.6997 3.44085 19.8169 3.55806C19.9342 3.67527 20 3.83424 20 4Z" fill="white"/>
</svg>
