<svg width="16" height="19" viewBox="0 0 16 19" fill="none" xmlns="http://www.w3.org/2000/svg">
<path d="M12.0626 17.6251C12.0626 17.8738 11.9638 18.1122 11.788 18.288C11.6122 18.4639 11.3737 18.5626 11.1251 18.5626H4.87511C4.62647 18.5626 4.38801 18.4639 4.21219 18.288C4.03638 18.1122 3.93761 17.8738 3.93761 17.6251C3.93761 17.3765 4.03638 17.138 4.21219 16.9622C4.38801 16.7864 4.62647 16.6876 4.87511 16.6876H11.1251C11.3737 16.6876 11.6122 16.7864 11.788 16.9622C11.9638 17.138 12.0626 17.3765 12.0626 17.6251ZM15.1876 7.62512C15.1905 8.71434 14.9444 9.7898 14.4682 10.7694C13.992 11.749 13.2983 12.6069 12.4399 13.2775C12.3237 13.366 12.2293 13.48 12.1639 13.6107C12.0985 13.7413 12.0638 13.8852 12.0626 14.0314V14.1876C12.0626 14.602 11.898 14.9995 11.605 15.2925C11.3119 15.5855 10.9145 15.7501 10.5001 15.7501H5.50011C5.08571 15.7501 4.68828 15.5855 4.39525 15.2925C4.10223 14.9995 3.93761 14.602 3.93761 14.1876V14.0314C3.93744 13.8877 3.90423 13.7459 3.84057 13.6171C3.7769 13.4883 3.68447 13.3758 3.57042 13.2884C2.71445 12.6217 2.02135 11.769 1.54357 10.7949C1.06578 9.82076 0.815819 8.75073 0.812605 7.66575C0.791512 3.77278 3.93761 0.531371 7.82745 0.437621C8.78576 0.414594 9.73899 0.583492 10.631 0.934374C11.5231 1.28526 12.3359 1.81103 13.0218 2.48076C13.7076 3.15049 14.2525 3.95064 14.6245 4.83411C14.9964 5.71759 15.1879 6.66654 15.1876 7.62512ZM13.3126 7.62512C13.3128 6.91649 13.1713 6.21498 12.8962 5.56189C12.6212 4.9088 12.2184 4.31733 11.7113 3.8223C11.2043 3.32726 10.6033 2.93867 9.94382 2.6794C9.28432 2.42013 8.57962 2.29543 7.8712 2.31262C4.99698 2.38137 2.67198 4.77746 2.68761 7.65481C2.69028 8.45671 2.87524 9.24751 3.22849 9.96741C3.58175 10.6873 4.09405 11.3175 4.72667 11.8103C5.04537 12.0563 5.30734 12.368 5.49473 12.7243C5.68212 13.0806 5.79054 13.4731 5.81261 13.8751H10.1954C10.2179 13.4724 10.3265 13.0791 10.5138 12.7218C10.7011 12.3646 10.9629 12.0516 11.2814 11.804C11.9158 11.3081 12.4286 10.6739 12.7806 9.94965C13.1326 9.22543 13.3146 8.43037 13.3126 7.62512ZM11.7446 7.2095C11.6617 6.50801 11.3843 5.84367 10.9438 5.29148C10.5033 4.73929 9.91719 4.32123 9.25167 4.0845C9.01905 4.00849 8.76593 4.02646 8.54638 4.13456C8.32683 4.24266 8.15825 4.43233 8.07665 4.66304C7.99505 4.89376 8.00691 5.14724 8.10968 5.36934C8.21245 5.59143 8.39799 5.76454 8.62667 5.85168C8.96111 5.96891 9.25608 6.17737 9.47822 6.4535C9.70037 6.72963 9.84082 7.0624 9.8837 7.41418C9.91105 7.66137 10.0355 7.88758 10.2296 8.04303C10.3257 8.12 10.4361 8.17728 10.5543 8.21161C10.6726 8.24594 10.7965 8.25663 10.9189 8.24309C11.0413 8.22955 11.1598 8.19203 11.2677 8.13268C11.3756 8.07333 11.4707 7.99331 11.5477 7.89718C11.6247 7.80106 11.682 7.69072 11.7163 7.57246C11.7506 7.4542 11.7613 7.33033 11.7478 7.20793L11.7446 7.2095Z" fill="black"/>
</svg>
