<svg width="22" height="15" viewBox="0 0 22 15" fill="none" xmlns="http://www.w3.org/2000/svg">
<path d="M18.4119 3.81285C17.4397 2.83846 16.2842 2.06617 15.0121 1.54049C13.74 1.01482 12.3764 0.746174 11 0.750041H10.9625C5.19406 0.769729 0.5 5.53129 0.5 11.356V13.5C0.5 13.8979 0.658035 14.2794 0.93934 14.5607C1.22064 14.842 1.60218 15 2 15H20C20.3978 15 20.7794 14.842 21.0607 14.5607C21.342 14.2794 21.5 13.8979 21.5 13.5V11.25C21.5039 9.86758 21.2328 8.49815 20.7027 7.22138C20.1725 5.94461 19.3938 4.78598 18.4119 3.81285ZM20 13.5H10.2228L15.3566 6.44067C15.4737 6.2798 15.5221 6.07899 15.4911 5.88243C15.4602 5.68587 15.3524 5.50965 15.1916 5.39254C15.0307 5.27543 14.8299 5.22702 14.6333 5.25797C14.4368 5.28891 14.2605 5.39667 14.1434 5.55754L8.3675 13.5H2V11.356C2 11.0672 2.01406 10.7822 2.04031 10.5H4.25C4.44891 10.5 4.63968 10.421 4.78033 10.2804C4.92098 10.1397 5 9.94895 5 9.75004C5 9.55113 4.92098 9.36036 4.78033 9.21971C4.63968 9.07906 4.44891 9.00004 4.25 9.00004H2.30656C3.27406 5.35692 6.43156 2.60254 10.25 2.28192V4.50004C10.25 4.69895 10.329 4.88972 10.4697 5.03037C10.6103 5.17102 10.8011 5.25004 11 5.25004C11.1989 5.25004 11.3897 5.17102 11.5303 5.03037C11.671 4.88972 11.75 4.69895 11.75 4.50004V2.28098C13.6106 2.43756 15.3767 3.16813 16.8042 4.37175C18.2316 5.57537 19.2501 7.19262 19.7188 9.00004H17.75C17.5511 9.00004 17.3603 9.07906 17.2197 9.21971C17.079 9.36036 17 9.55113 17 9.75004C17 9.94895 17.079 10.1397 17.2197 10.2804C17.3603 10.421 17.5511 10.5 17.75 10.5H19.9691C19.9888 10.7485 20 10.9979 20 11.25V13.5Z" fill="#737373"/>
</svg>
