<svg width="21" height="15" viewBox="0 0 21 15" fill="none" xmlns="http://www.w3.org/2000/svg">
<path d="M21 11.2499V13.4999C21 13.8977 20.842 14.2793 20.5607 14.5606C20.2794 14.8419 19.8978 14.9999 19.5 14.9999H9.36844C9.29927 15 9.23143 14.9809 9.17242 14.9448C9.11342 14.9087 9.06555 14.857 9.03411 14.7953C9.00268 14.7337 8.98889 14.6646 8.99429 14.5957C8.99968 14.5267 9.02405 14.4606 9.06469 14.4046L14.8378 6.46866C14.9575 6.30971 15.0109 6.11061 14.987 5.9131C14.963 5.71559 14.8635 5.53503 14.7094 5.40928C14.6301 5.34774 14.5392 5.30275 14.4421 5.27698C14.3451 5.2512 14.2439 5.24518 14.1445 5.25926C14.0451 5.27333 13.9495 5.30722 13.8634 5.35892C13.7774 5.41062 13.7026 5.47907 13.6434 5.56022L6.89344 14.8471C6.85806 14.8952 6.81169 14.9342 6.75821 14.9608C6.70472 14.9873 6.64566 15.0008 6.58594 14.9999H1.5C1.10218 14.9999 0.720644 14.8419 0.43934 14.5606C0.158035 14.2793 0 13.8977 0 13.4999V11.3558C0 11.188 -7.82311e-08 11.0212 0.0121874 10.8562C0.0170019 10.76 0.0586263 10.6694 0.128437 10.603C0.198249 10.5367 0.290896 10.4998 0.387187 10.4999H3C3.10282 10.5001 3.20458 10.4792 3.29897 10.4385C3.39336 10.3977 3.47837 10.338 3.5487 10.263C3.61904 10.188 3.6732 10.0993 3.70783 10.0025C3.74246 9.90571 3.75681 9.80281 3.75 9.70022C3.73341 9.50703 3.64417 9.32733 3.50028 9.19736C3.35639 9.06739 3.16856 8.99682 2.97469 8.99991H0.7425C0.685292 8.99987 0.628852 8.98673 0.5775 8.96152C0.526149 8.93631 0.481246 8.89968 0.446231 8.85444C0.411215 8.8092 0.387014 8.75655 0.37548 8.70051C0.363946 8.64448 0.365385 8.58655 0.379687 8.53116C1.50469 4.42116 5.03531 1.30022 9.33469 0.817408C9.38721 0.811728 9.44034 0.81721 9.4906 0.833495C9.54086 0.84978 9.58711 0.876501 9.62632 0.911906C9.66553 0.947311 9.69682 0.990602 9.71813 1.03894C9.73945 1.08728 9.75031 1.13958 9.75 1.19241V3.74991C9.74977 3.85272 9.77069 3.95449 9.81145 4.04888C9.85221 4.14327 9.91194 4.22827 9.98694 4.29861C10.0619 4.36894 10.1506 4.42311 10.2474 4.45774C10.3442 4.49237 10.4471 4.50672 10.5497 4.49991C10.7429 4.48332 10.9226 4.39408 11.0526 4.25019C11.1825 4.1063 11.2531 3.91847 11.25 3.7246V1.18772C11.2497 1.13489 11.2606 1.08259 11.2819 1.03425C11.3032 0.985914 11.3345 0.942623 11.3737 0.907218C11.4129 0.871813 11.4591 0.845093 11.5094 0.828808C11.5597 0.812523 11.6128 0.807041 11.6653 0.812721C13.7643 1.04859 15.7436 1.91101 17.3456 3.28769C18.9475 4.66437 20.0977 6.49151 20.6466 8.53116C20.6609 8.58663 20.6623 8.64464 20.6507 8.70074C20.6391 8.75685 20.6149 8.80955 20.5797 8.85481C20.5446 8.90007 20.4996 8.93668 20.4481 8.96183C20.3966 8.98698 20.3401 9.00001 20.2828 8.99991H18.0253C17.8318 8.9973 17.6444 9.06808 17.5009 9.198C17.3574 9.32793 17.2684 9.50736 17.2519 9.70022C17.2451 9.80281 17.2594 9.90571 17.294 10.0025C17.3287 10.0993 17.3828 10.188 17.4532 10.263C17.5235 10.338 17.6085 10.3977 17.7029 10.4385C17.7973 10.4792 17.8991 10.5001 18.0019 10.4999H20.6194C20.7166 10.4998 20.81 10.5375 20.88 10.6051C20.95 10.6726 20.991 10.7646 20.9944 10.8618C21 10.9902 21 11.1196 21 11.2499Z" fill="white"/>
</svg>
