<svg width="16" height="17" viewBox="0 0 16 17" fill="none" xmlns="http://www.w3.org/2000/svg">
<path d="M14.25 5.75H11.75V3.875C11.75 2.88044 11.3549 1.92661 10.6517 1.22335C9.94839 0.520088 8.99456 0.125 8 0.125C7.00544 0.125 6.05161 0.520088 5.34835 1.22335C4.64509 1.92661 4.25 2.88044 4.25 3.875V5.75H1.75C1.41848 5.75 1.10054 5.8817 0.866116 6.11612C0.631696 6.35054 0.5 6.66848 0.5 7V15.75C0.5 16.0815 0.631696 16.3995 0.866116 16.6339C1.10054 16.8683 1.41848 17 1.75 17H14.25C14.5815 17 14.8995 16.8683 15.1339 16.6339C15.3683 16.3995 15.5 16.0815 15.5 15.75V7C15.5 6.66848 15.3683 6.35054 15.1339 6.11612C14.8995 5.8817 14.5815 5.75 14.25 5.75ZM1.75 9.5H14.25V10.75H1.75V9.5ZM1.75 12H14.25V13.25H1.75V12ZM5.5 3.875C5.5 3.21196 5.76339 2.57607 6.23223 2.10723C6.70107 1.63839 7.33696 1.375 8 1.375C8.66304 1.375 9.29893 1.63839 9.76777 2.10723C10.2366 2.57607 10.5 3.21196 10.5 3.875V5.75H5.5V3.875ZM14.25 7V8.25H1.75V7H14.25ZM14.25 15.75H1.75V14.5H14.25V15.75Z" fill="black"/>
</svg>
