<svg width="20" height="13" viewBox="0 0 20 13" fill="none" xmlns="http://www.w3.org/2000/svg">
<path d="M10 3.375C9.38193 3.375 8.77775 3.55828 8.26384 3.90166C7.74994 4.24504 7.3494 4.7331 7.11288 5.30411C6.87635 5.87513 6.81447 6.50347 6.93505 7.10966C7.05562 7.71585 7.35325 8.27267 7.79029 8.70971C8.22733 9.14675 8.78415 9.44438 9.39034 9.56495C9.99653 9.68553 10.6249 9.62365 11.1959 9.38712C11.7669 9.1506 12.255 8.75006 12.5983 8.23616C12.9417 7.72225 13.125 7.11807 13.125 6.5C13.125 5.6712 12.7958 4.87634 12.2097 4.29029C11.6237 3.70424 10.8288 3.375 10 3.375ZM10 8.375C9.62916 8.375 9.26665 8.26503 8.95831 8.05901C8.64996 7.85298 8.40964 7.56014 8.26773 7.21753C8.12581 6.87492 8.08868 6.49792 8.16103 6.13421C8.23337 5.77049 8.41195 5.4364 8.67417 5.17417C8.9364 4.91195 9.27049 4.73337 9.63421 4.66103C9.99792 4.58868 10.3749 4.62581 10.7175 4.76773C11.0601 4.90964 11.353 5.14996 11.559 5.45831C11.765 5.76665 11.875 6.12916 11.875 6.5C11.875 6.99728 11.6775 7.47419 11.3258 7.82583C10.9742 8.17746 10.4973 8.375 10 8.375ZM18.75 0.875H1.25C1.08424 0.875 0.925268 0.940848 0.808058 1.05806C0.690848 1.17527 0.625 1.33424 0.625 1.5V11.5C0.625 11.6658 0.690848 11.8247 0.808058 11.9419C0.925268 12.0592 1.08424 12.125 1.25 12.125H18.75C18.9158 12.125 19.0747 12.0592 19.1919 11.9419C19.3092 11.8247 19.375 11.6658 19.375 11.5V1.5C19.375 1.33424 19.3092 1.17527 19.1919 1.05806C19.0747 0.940848 18.9158 0.875 18.75 0.875ZM15.1289 10.875H4.87109C4.66125 10.1653 4.27719 9.51941 3.75389 8.99611C3.23059 8.47281 2.58468 8.08875 1.875 7.87891V5.12109C2.58468 4.91125 3.23059 4.52719 3.75389 4.00389C4.27719 3.48059 4.66125 2.83468 4.87109 2.125H15.1289C15.3387 2.83468 15.7228 3.48059 16.2461 4.00389C16.7694 4.52719 17.4153 4.91125 18.125 5.12109V7.87891C17.4153 8.08875 16.7694 8.47281 16.2461 8.99611C15.7228 9.51941 15.3387 10.1653 15.1289 10.875ZM18.125 3.79453C17.3753 3.47218 16.7778 2.87466 16.4555 2.125H18.125V3.79453ZM3.54453 2.125C3.22218 2.87466 2.62466 3.47218 1.875 3.79453V2.125H3.54453ZM1.875 9.20547C2.62466 9.52782 3.22218 10.1253 3.54453 10.875H1.875V9.20547ZM16.4555 10.875C16.7778 10.1253 17.3753 9.52782 18.125 9.20547V10.875H16.4555Z" fill="white"/>
</svg>
