<svg width="10" height="10" viewBox="0 0 10 10" fill="none" xmlns="http://www.w3.org/2000/svg">
<path d="M4.4375 5V1.25C4.4375 1.10082 4.49676 0.957742 4.60225 0.852252C4.70774 0.746763 4.85082 0.6875 5 0.6875C5.14918 0.6875 5.29226 0.746763 5.39775 0.852252C5.50324 0.957742 5.5625 1.10082 5.5625 1.25V5C5.5625 5.14918 5.50324 5.29226 5.39775 5.39775C5.29226 5.50324 5.14918 5.5625 5 5.5625C4.85082 5.5625 4.70774 5.50324 4.60225 5.39775C4.49676 5.29226 4.4375 5.14918 4.4375 5ZM7.55703 1.15625C7.43213 1.07934 7.28212 1.05427 7.139 1.08637C6.99587 1.11847 6.87095 1.20521 6.79086 1.3281C6.71076 1.45099 6.68184 1.6003 6.71026 1.7442C6.73868 1.88811 6.82218 2.01522 6.94297 2.09844C7.97234 2.76734 8.5625 3.82812 8.5625 5C8.5625 5.94483 8.18717 6.85097 7.51907 7.51907C6.85097 8.18717 5.94483 8.5625 5 8.5625C4.05517 8.5625 3.14903 8.18717 2.48093 7.51907C1.81283 6.85097 1.4375 5.94483 1.4375 5C1.4375 3.82812 2.02766 2.76734 3.05703 2.09609C3.17139 2.01038 3.24884 1.88436 3.27365 1.74361C3.29845 1.60286 3.26875 1.45795 3.19058 1.33831C3.11241 1.21867 2.99163 1.13327 2.85277 1.09945C2.71392 1.06564 2.5674 1.08594 2.44297 1.15625C1.08875 2.03656 0.3125 3.43859 0.3125 5C0.3125 6.2432 0.80636 7.43549 1.68544 8.31456C2.56451 9.19364 3.7568 9.6875 5 9.6875C6.2432 9.6875 7.43549 9.19364 8.31456 8.31456C9.19364 7.43549 9.6875 6.2432 9.6875 5C9.6875 3.43859 8.91125 2.03656 7.55703 1.15625Z" fill="black"/>
</svg>
