<svg width="21" height="21" viewBox="0 0 21 21" fill="none" xmlns="http://www.w3.org/2000/svg">
<path d="M20.2806 4.7193C20.2109 4.64957 20.1282 4.59425 20.0371 4.55651C19.9461 4.51877 19.8485 4.49934 19.7499 4.49934C19.6514 4.49934 19.5538 4.51877 19.4627 4.55651C19.3717 4.59425 19.289 4.64957 19.2193 4.7193L15.9999 7.93962L12.5602 4.49993L15.7806 1.28055C15.9213 1.13982 16.0003 0.948952 16.0003 0.749929C16.0003 0.550906 15.9213 0.360034 15.7806 0.219304C15.6398 0.0785733 15.449 -0.000488281 15.2499 -0.000488281C15.0509 -0.000488281 14.86 0.0785733 14.7193 0.219304L11.4999 3.43962L9.03055 0.969304C8.88982 0.828573 8.69895 0.749512 8.49993 0.749512C8.30091 0.749512 8.11003 0.828573 7.9693 0.969304C7.82857 1.11003 7.74951 1.30091 7.74951 1.49993C7.74951 1.69895 7.82857 1.88982 7.9693 2.03055L8.56462 2.62493L3.59587 7.59368C3.24763 7.9419 2.97139 8.35531 2.78292 8.81029C2.59445 9.26527 2.49745 9.75292 2.49745 10.2454C2.49745 10.7379 2.59445 11.2255 2.78292 11.6805C2.97139 12.1355 3.24763 12.5489 3.59587 12.8971L5.06868 14.3699L0.469304 18.9693C0.399621 19.039 0.344346 19.1217 0.306634 19.2128C0.268922 19.3038 0.249512 19.4014 0.249512 19.4999C0.249512 19.5985 0.268922 19.6961 0.306634 19.7871C0.344346 19.8781 0.399621 19.9609 0.469304 20.0306C0.610034 20.1713 0.800906 20.2503 0.999929 20.2503C1.09847 20.2503 1.19606 20.2309 1.2871 20.1932C1.37815 20.1555 1.46087 20.1002 1.53055 20.0306L6.13274 15.4284L7.60555 16.9012C7.95378 17.2494 8.36718 17.5257 8.82216 17.7141C9.27715 17.9026 9.7648 17.9996 10.2573 17.9996C10.7497 17.9996 11.2374 17.9026 11.6924 17.7141C12.1474 17.5257 12.5608 17.2494 12.909 16.9012L17.8777 11.9324L18.4721 12.5277C18.5418 12.5974 18.6245 12.6527 18.7156 12.6904C18.8066 12.7281 18.9042 12.7475 19.0027 12.7475C19.1013 12.7475 19.1989 12.7281 19.2899 12.6904C19.381 12.6527 19.4637 12.5974 19.5334 12.5277C19.603 12.4581 19.6583 12.3753 19.696 12.2843C19.7337 12.1932 19.7532 12.0957 19.7532 11.9971C19.7532 11.8986 19.7337 11.801 19.696 11.7099C19.6583 11.6189 19.603 11.5362 19.5334 11.4665L17.0602 8.99993L20.2806 5.78055C20.3503 5.7109 20.4056 5.62818 20.4433 5.53713C20.4811 5.44609 20.5005 5.34849 20.5005 5.24993C20.5005 5.15137 20.4811 5.05377 20.4433 4.96272C20.4056 4.87168 20.3503 4.78896 20.2806 4.7193ZM11.8487 15.8437C11.6397 16.0527 11.3916 16.2186 11.1186 16.3317C10.8455 16.4449 10.5528 16.5031 10.2573 16.5031C9.9617 16.5031 9.66902 16.4449 9.39596 16.3317C9.1229 16.2186 8.87481 16.0527 8.66587 15.8437L4.65618 11.834C4.44712 11.625 4.28128 11.377 4.16814 11.1039C4.05499 10.8308 3.99675 10.5382 3.99675 10.2426C3.99675 9.94701 4.05499 9.65433 4.16814 9.38128C4.28128 9.10822 4.44712 8.86013 4.65618 8.65118L9.62493 3.68243L16.8146 10.8749L11.8487 15.8437Z" fill="black"/>
</svg>
