<svg width="16" height="21" viewBox="0 0 16 21" fill="none" xmlns="http://www.w3.org/2000/svg">
<path d="M14 0.75H2C1.60218 0.75 1.22064 0.908035 0.93934 1.18934C0.658035 1.47064 0.5 1.85218 0.5 2.25V18.75C0.5 19.1478 0.658035 19.5294 0.93934 19.8107C1.22064 20.092 1.60218 20.25 2 20.25H14C14.3978 20.25 14.7794 20.092 15.0607 19.8107C15.342 19.5294 15.5 19.1478 15.5 18.75V2.25C15.5 1.85218 15.342 1.47064 15.0607 1.18934C14.7794 0.908035 14.3978 0.75 14 0.75ZM14 18.75H2V2.25H14V18.75ZM6.875 5.625C6.875 5.4025 6.94098 5.18499 7.0646 4.99998C7.18821 4.81498 7.36391 4.67078 7.56948 4.58564C7.77505 4.50049 8.00125 4.47821 8.21948 4.52162C8.43771 4.56502 8.63816 4.67217 8.79549 4.8295C8.95283 4.98684 9.05998 5.18729 9.10338 5.40552C9.14679 5.62375 9.12451 5.84995 9.03936 6.05552C8.95422 6.26109 8.81002 6.43679 8.62502 6.5604C8.44001 6.68402 8.2225 6.75 8 6.75C7.70163 6.75 7.41548 6.63147 7.2045 6.4205C6.99353 6.20952 6.875 5.92337 6.875 5.625ZM8 16.5C8.74168 16.5 9.4667 16.2801 10.0834 15.868C10.7001 15.456 11.1807 14.8703 11.4645 14.1851C11.7484 13.4998 11.8226 12.7458 11.6779 12.0184C11.5333 11.291 11.1761 10.6228 10.6517 10.0983C10.1272 9.5739 9.45902 9.21675 8.73159 9.07205C8.00416 8.92736 7.25016 9.00162 6.56494 9.28545C5.87971 9.56928 5.29404 10.0499 4.88199 10.6666C4.46993 11.2833 4.25 12.0083 4.25 12.75C4.25 13.2425 4.347 13.7301 4.53545 14.1851C4.72391 14.64 5.00013 15.0534 5.34835 15.4017C6.05161 16.1049 7.00544 16.5 8 16.5ZM8 10.5C8.44501 10.5 8.88002 10.632 9.25003 10.8792C9.62004 11.1264 9.90843 11.4778 10.0787 11.889C10.249 12.3001 10.2936 12.7525 10.2068 13.189C10.12 13.6254 9.90566 14.0263 9.59099 14.341C9.27632 14.6557 8.87541 14.87 8.43895 14.9568C8.0025 15.0436 7.5501 14.999 7.13896 14.8287C6.72783 14.6584 6.37643 14.37 6.12919 14C5.88196 13.63 5.75 13.195 5.75 12.75C5.75 12.1533 5.98705 11.581 6.40901 11.159C6.83097 10.7371 7.40326 10.5 8 10.5Z" fill="black"/>
</svg>
