<svg width="18" height="17" viewBox="0 0 18 17" fill="none" xmlns="http://www.w3.org/2000/svg">
<path d="M9 0.375C7.39303 0.375 5.82214 0.851523 4.486 1.74431C3.14985 2.6371 2.10844 3.90605 1.49348 5.3907C0.87852 6.87535 0.717618 8.50901 1.03112 10.0851C1.34463 11.6612 2.11846 13.1089 3.25476 14.2452C4.39106 15.3815 5.8388 16.1554 7.4149 16.4689C8.99099 16.7824 10.6247 16.6215 12.1093 16.0065C13.594 15.3916 14.8629 14.3502 15.7557 13.014C16.6485 11.6779 17.125 10.107 17.125 8.5C17.1227 6.34581 16.266 4.28051 14.7427 2.75727C13.2195 1.23403 11.1542 0.377275 9 0.375ZM9 15.375C7.64026 15.375 6.31105 14.9718 5.18046 14.2164C4.04987 13.4609 3.16868 12.3872 2.64833 11.1309C2.12798 9.87471 1.99183 8.49237 2.2571 7.15875C2.52238 5.82513 3.17716 4.60013 4.13864 3.63864C5.10013 2.67716 6.32514 2.02237 7.65876 1.7571C8.99238 1.49183 10.3747 1.62798 11.631 2.14833C12.8872 2.66868 13.9609 3.54987 14.7164 4.68045C15.4718 5.81104 15.875 7.14025 15.875 8.5C15.8729 10.3227 15.1479 12.0702 13.8591 13.3591C12.5702 14.6479 10.8227 15.3729 9 15.375ZM14 8.5C14 8.66576 13.9342 8.82473 13.8169 8.94194C13.6997 9.05915 13.5408 9.125 13.375 9.125H9C8.83424 9.125 8.67527 9.05915 8.55806 8.94194C8.44085 8.82473 8.375 8.66576 8.375 8.5V4.125C8.375 3.95924 8.44085 3.80027 8.55806 3.68306C8.67527 3.56585 8.83424 3.5 9 3.5C9.16576 3.5 9.32474 3.56585 9.44195 3.68306C9.55916 3.80027 9.625 3.95924 9.625 4.125V7.875H13.375C13.5408 7.875 13.6997 7.94085 13.8169 8.05806C13.9342 8.17527 14 8.33424 14 8.5Z" fill="white"/>
</svg>
